<svg width="43" height="43" viewBox="0 0 43 43" fill="none" xmlns="http://www.w3.org/2000/svg">
<path d="M5.98873 13.9354C6.39392 12.9572 6.9878 12.0684 7.73649 11.3197C8.48516 10.5711 9.37397 9.97717 10.3522 9.57198C11.3304 9.1668 12.3788 8.95825 13.4376 8.95825C14.4964 8.95825 15.5448 9.1668 16.523 9.57198C17.5012 9.97717 18.39 10.5711 19.1387 11.3197L21.5001 13.6812L23.8615 11.3197C25.3735 9.80772 27.4242 8.95827 29.5626 8.95827C31.7009 8.95827 33.7516 9.80772 35.2636 11.3197C36.7757 12.8318 37.6251 14.8825 37.6251 17.0208C37.6251 19.1591 36.7757 21.2099 35.2636 22.7219L21.5001 36.4855L7.73649 22.7219C6.9878 21.9732 6.39392 21.0844 5.98873 20.1062C5.58355 19.128 5.375 18.0796 5.375 17.0208C5.375 15.962 5.58355 14.9136 5.98873 13.9354Z" stroke="#18181B" stroke-width="2" stroke-linecap="round" stroke-linejoin="round"/>
</svg>
