<svg width="79" height="82" viewBox="0 0 79 82" fill="none" xmlns="http://www.w3.org/2000/svg">
<rect width="79" height="82" rx="23" fill="#FEFEFE"/>
<g clip-path="url(#clip0_261_560)">
<path d="M39.8588 27.5513L47.4884 26.556C47.4884 26.556 46.2711 22.4718 44.1782 20.2197C42.0822 17.9677 41.7685 17.0656 43.1969 14.3843C44.6285 11.703 43.1845 9.63135 40.6103 9.63135H38.3962C35.8188 9.63135 34.378 11.6999 35.8095 14.3843C37.2411 17.0656 36.9243 17.9677 34.8283 20.2197C32.7353 22.4718 31.5181 26.556 31.5181 26.556L39.1477 27.5513V27.6447L39.5048 27.598L39.8619 27.6447V27.5513H39.8588Z" fill="#21DDFF"/>
<path d="M38.5111 28.3633V28.1051L30.6982 27.088L30.9094 26.3756C30.9622 26.2015 32.1919 22.1204 34.3624 19.7875C36.2815 17.7252 36.5423 17.1093 35.2474 14.683C34.4618 13.2055 34.3935 11.7809 35.0611 10.6642C35.6946 9.60656 36.9088 9 38.39 9H40.604C42.0883 9 43.2994 9.60656 43.9328 10.6642C44.6005 11.7777 44.5353 13.2055 43.7465 14.6799C42.4516 17.1093 42.7156 17.7252 44.6315 19.7843C46.8021 22.1173 48.0318 26.1983 48.0846 26.3725L48.2957 27.0849L40.4829 28.102V28.3602L39.4954 28.2295L38.508 28.3602L38.5111 28.3633ZM39.4985 26.9604L39.7749 26.9262L46.6437 26.0304C46.2059 24.7924 45.1718 22.2199 43.7124 20.6522C41.4952 18.2664 41.0574 17.0502 42.638 14.0889C43.2093 13.022 43.2839 12.0359 42.8553 11.3174C42.4547 10.6486 41.635 10.266 40.6071 10.266H38.3931C37.3652 10.266 36.5454 10.6486 36.1449 11.3174C35.7132 12.0359 35.7909 13.0189 36.3622 14.0889C37.9428 17.0502 37.505 18.2664 35.2878 20.6522C33.8283 22.223 32.7974 24.7955 32.3564 26.0304L39.5016 26.9604H39.4985Z" fill="#FA5A96"/>
<path d="M49.2242 72.3656H29.2977C27.2731 72.3656 25.6335 70.7232 25.6335 68.6951V48.3706C25.6335 43.9505 27.5526 39.7481 30.8876 36.8553L39.2625 29.5952L47.6374 36.8553C50.9756 39.7481 52.8915 43.9505 52.8915 48.3706V68.6951C52.8915 70.7232 51.2519 72.3656 49.2273 72.3656H49.2242Z" fill="#F8F7F0"/>
<path d="M49.2241 73H29.2946C26.9253 73 25 71.0683 25 68.698V48.3705C25 43.7637 26.9967 39.3933 30.4746 36.3761L39.2624 28.7583L48.0503 36.3761C51.5282 39.3902 53.5218 43.7637 53.5218 48.3705V68.6949C53.5218 71.0683 51.5934 72.9968 49.2272 72.9968L49.2241 73ZM39.2593 30.4287L31.2975 37.331C28.0959 40.1057 26.2607 44.1307 26.2607 48.3705V68.6949C26.2607 70.3715 27.6208 71.7339 29.2946 71.7339H49.2241C50.8978 71.7339 52.2579 70.3715 52.2579 68.6949V48.3705C52.2579 44.1307 50.4227 40.1057 47.2212 37.331L39.2593 30.4287Z" fill="#FA5A96"/>
<path d="M53.3696 36.6558H25.6304V31.6385C25.6304 30.1734 26.8135 28.9883 28.2761 28.9883H50.724C52.1865 28.9883 53.3696 30.1734 53.3696 31.6385V36.6558Z" fill="#21DDFF"/>
<path d="M54 37.2874H25V31.6386C25 29.8282 26.4719 28.3569 28.276 28.3569H50.724C52.5312 28.3569 54 29.8282 54 31.6386V37.2874ZM26.2607 36.0245H52.7393V31.6386C52.7393 30.525 51.8356 29.6198 50.724 29.6198H28.276C27.1644 29.6198 26.2607 30.525 26.2607 31.6386V36.0245Z" fill="#FA5A96"/>
<path d="M50.1401 26.2979H28.8598C28.1258 26.2979 27.5308 26.8939 27.5308 27.6292V27.6572C27.5308 28.3924 28.1258 28.9885 28.8598 28.9885H50.1401C50.8742 28.9885 51.4692 28.3924 51.4692 27.6572V27.6292C51.4692 26.8939 50.8742 26.2979 50.1401 26.2979Z" fill="#21DDFF"/>
<path d="M50.1401 29.62H28.8598C27.7792 29.62 26.9004 28.7397 26.9004 27.6573C26.9004 26.5748 27.7792 25.6665 28.8598 25.6665H50.1401C51.2208 25.6665 52.0996 26.5468 52.0996 27.6293C52.0996 28.7118 51.2208 29.62 50.1401 29.62ZM28.8598 26.9325C28.4748 26.9325 28.1611 27.2467 28.1611 27.6324C28.1611 28.0461 28.4748 28.3571 28.8598 28.3571H50.1401C50.5252 28.3571 50.8388 28.043 50.8388 27.6573C50.8388 27.2436 50.5252 26.9325 50.1401 26.9325H28.8598Z" fill="#FA5A96"/>
<path d="M31.5149 68.0077C31.1671 68.0077 30.8845 67.7247 30.8845 67.3763V45.1886C30.8845 44.8402 31.1671 44.5571 31.5149 44.5571C31.8627 44.5571 32.1453 44.8402 32.1453 45.1886V67.3763C32.1453 67.7247 31.8627 68.0077 31.5149 68.0077Z" fill="#21DDFF"/>
<path d="M40.5201 50.3337H31.9683C31.6205 50.3337 31.3379 50.0506 31.3379 49.7022C31.3379 49.3539 31.6205 49.0708 31.9683 49.0708H40.5201C40.8679 49.0708 41.1505 49.3539 41.1505 49.7022C41.1505 50.0506 40.8679 50.3337 40.5201 50.3337Z" fill="#21DDFF"/>
<path d="M40.5201 58.0632H31.9683C31.6205 58.0632 31.3379 57.7801 31.3379 57.4317C31.3379 57.0834 31.6205 56.8003 31.9683 56.8003H40.5201C40.8679 56.8003 41.1505 57.0834 41.1505 57.4317C41.1505 57.7801 40.8679 58.0632 40.5201 58.0632Z" fill="#21DDFF"/>
<path d="M40.5201 65.7932H31.9683C31.6205 65.7932 31.3379 65.5101 31.3379 65.1617C31.3379 64.8133 31.6205 64.5303 31.9683 64.5303H40.5201C40.8679 64.5303 41.1505 64.8133 41.1505 65.1617C41.1505 65.5101 40.8679 65.7932 40.5201 65.7932Z" fill="#21DDFF"/>
<path d="M38.7128 24.6338C40.0762 24.6338 41.1815 23.5266 41.1815 22.1609C41.1815 20.7951 40.0762 19.688 38.7128 19.688C37.3494 19.688 36.2441 20.7951 36.2441 22.1609C36.2441 23.5266 37.3494 24.6338 38.7128 24.6338Z" fill="#FA5A96"/>
</g>
<defs>
<clipPath id="clip0_261_560">
<rect width="29" height="64" fill="white" transform="translate(25 9)"/>
</clipPath>
</defs>
</svg>
