<svg width="41" height="41" viewBox="0 0 41 41" fill="none" xmlns="http://www.w3.org/2000/svg">
<path d="M7.83397 7.83409C7.19322 8.47484 6.83325 9.34388 6.83325 10.25V13.6667C6.83325 14.5729 7.19322 15.4419 7.83397 16.0827C8.47472 16.7234 9.34376 17.0834 10.2499 17.0834H13.6666C14.5727 17.0834 15.4418 16.7234 16.0825 16.0827C16.7233 15.4419 17.0833 14.5729 17.0833 13.6667V10.25C17.0833 9.34388 16.7233 8.47484 16.0825 7.83409C15.4418 7.19334 14.5727 6.83337 13.6666 6.83337H10.2499C9.34376 6.83337 8.47472 7.19334 7.83397 7.83409Z" stroke="#18181B" stroke-width="2" stroke-linecap="round" stroke-linejoin="round"/>
<path d="M24.9173 7.83409C24.2766 8.47484 23.9166 9.34388 23.9166 10.25V13.6667C23.9166 14.5729 24.2766 15.4419 24.9173 16.0827C25.5581 16.7234 26.4271 17.0834 27.3333 17.0834H30.7499C31.6561 17.0834 32.5251 16.7234 33.1659 16.0827C33.8066 15.4419 34.1666 14.5729 34.1666 13.6667V10.25C34.1666 9.34388 33.8066 8.47484 33.1659 7.83409C32.5251 7.19334 31.6561 6.83337 30.7499 6.83337H27.3333C26.4271 6.83337 25.5581 7.19334 24.9173 7.83409Z" stroke="#18181B" stroke-width="2" stroke-linecap="round" stroke-linejoin="round"/>
<path d="M7.83397 24.9174C7.19322 25.5582 6.83325 26.4272 6.83325 27.3334V30.75C6.83325 31.6562 7.19322 32.5252 7.83397 33.166C8.47472 33.8067 9.34376 34.1667 10.2499 34.1667H13.6666C14.5727 34.1667 15.4418 33.8067 16.0825 33.166C16.7233 32.5252 17.0833 31.6562 17.0833 30.75V27.3334C17.0833 26.4272 16.7233 25.5582 16.0825 24.9174C15.4418 24.2767 14.5727 23.9167 13.6666 23.9167H10.2499C9.34376 23.9167 8.47472 24.2767 7.83397 24.9174Z" stroke="#18181B" stroke-width="2" stroke-linecap="round" stroke-linejoin="round"/>
<path d="M24.9173 24.9174C24.2766 25.5582 23.9166 26.4272 23.9166 27.3334V30.75C23.9166 31.6562 24.2766 32.5252 24.9173 33.166C25.5581 33.8067 26.4271 34.1667 27.3333 34.1667H30.7499C31.6561 34.1667 32.5251 33.8067 33.1659 33.166C33.8066 32.5252 34.1666 31.6562 34.1666 30.75V27.3334C34.1666 26.4272 33.8066 25.5582 33.1659 24.9174C32.5251 24.2767 31.6561 23.9167 30.7499 23.9167H27.3333C26.4271 23.9167 25.5581 24.2767 24.9173 24.9174Z" stroke="#18181B" stroke-width="2" stroke-linecap="round" stroke-linejoin="round"/>
</svg>
