<svg width="39" height="39" viewBox="0 0 39 39" fill="none" xmlns="http://www.w3.org/2000/svg">
<path d="M4.875 4.875H8.125L8.775 8.125M8.775 8.125H34.125L27.625 21.125H11.375M8.775 8.125L11.375 21.125M11.375 21.125L7.64887 24.8511C6.62512 25.8749 7.34988 27.625 8.79775 27.625H27.625M27.625 27.625C26.763 27.625 25.9364 27.9674 25.3269 28.5769C24.7174 29.1864 24.375 30.013 24.375 30.875C24.375 31.737 24.7174 32.5636 25.3269 33.1731C25.9364 33.7826 26.763 34.125 27.625 34.125C28.487 34.125 29.3136 33.7826 29.9231 33.1731C30.5326 32.5636 30.875 31.737 30.875 30.875C30.875 30.013 30.5326 29.1864 29.9231 28.5769C29.3136 27.9674 28.487 27.625 27.625 27.625ZM14.625 30.875C14.625 31.737 14.2826 32.5636 13.6731 33.1731C13.0636 33.7826 12.237 34.125 11.375 34.125C10.513 34.125 9.6864 33.7826 9.0769 33.1731C8.46741 32.5636 8.125 31.737 8.125 30.875C8.125 30.013 8.46741 29.1864 9.0769 28.5769C9.6864 27.9674 10.513 27.625 11.375 27.625C12.237 27.625 13.0636 27.9674 13.6731 28.5769C14.2826 29.1864 14.625 30.013 14.625 30.875Z" stroke="#18181B" stroke-width="2" stroke-linecap="round" stroke-linejoin="round"/>
</svg>
