<svg width="35" height="35" viewBox="0 0 35 35" fill="none" xmlns="http://www.w3.org/2000/svg">
<path d="M7.46812 25.9642C10.5283 24.2345 13.9848 23.328 17.5 23.3333C21.1458 23.3333 24.5685 24.2885 27.5319 25.9642M21.875 14.5833C21.875 15.7437 21.4141 16.8565 20.5936 17.6769C19.7731 18.4974 18.6603 18.9583 17.5 18.9583C16.3397 18.9583 15.2269 18.4974 14.4064 17.6769C13.5859 16.8565 13.125 15.7437 13.125 14.5833C13.125 13.423 13.5859 12.3102 14.4064 11.4897C15.2269 10.6693 16.3397 10.2083 17.5 10.2083C18.6603 10.2083 19.7731 10.6693 20.5936 11.4897C21.4141 12.3102 21.875 13.423 21.875 14.5833ZM30.625 17.5C30.625 19.2236 30.2855 20.9303 29.6259 22.5227C28.9663 24.1151 27.9995 25.562 26.7808 26.7808C25.562 27.9995 24.1151 28.9663 22.5227 29.6259C20.9303 30.2855 19.2236 30.625 17.5 30.625C15.7764 30.625 14.0697 30.2855 12.4773 29.6259C10.8849 28.9663 9.43799 27.9995 8.21922 26.7808C7.00045 25.562 6.03367 24.1151 5.37408 22.5227C4.71449 20.9303 4.375 19.2236 4.375 17.5C4.375 14.019 5.75781 10.6806 8.21922 8.21922C10.6806 5.75781 14.019 4.375 17.5 4.375C20.981 4.375 24.3194 5.75781 26.7808 8.21922C29.2422 10.6806 30.625 14.019 30.625 17.5Z" stroke="#18181B" stroke-width="2" stroke-linecap="round" stroke-linejoin="round"/>
</svg>
